<svg width="156" height="34" viewBox="0 0 156 34" fill="none" xmlns="http://www.w3.org/2000/svg">
<rect width="156" height="34" fill="#E5E5E5"/>
<rect y="17.5705" width="24.1061" height="23.313" transform="rotate(-46.7928 0 17.5705)" fill="#333333"/>
<path d="M16.9863 17.9199L20.6973 10.7812H22.8262L17.9238 19.6973V25H16.0488V19.6973L11.1465 10.7812H13.2949L16.9863 17.9199Z" fill="white"/>
<path d="M47.9863 17.9199L51.6973 10.7812H53.8262L48.9238 19.6973V25H47.0488V19.6973L42.1465 10.7812H44.2949L47.9863 17.9199ZM64.7344 10.7812V20.4492C64.7279 21.7904 64.3047 22.8874 63.4648 23.7402C62.6315 24.5931 61.4987 25.0716 60.0664 25.1758L59.5684 25.1953C58.0124 25.1953 56.7721 24.7754 55.8477 23.9355C54.9232 23.0957 54.4544 21.9401 54.4414 20.4688V10.7812H56.2969V20.4102C56.2969 21.4388 56.5801 22.2396 57.1465 22.8125C57.7129 23.3789 58.5202 23.6621 59.5684 23.6621C60.6296 23.6621 61.4401 23.3789 62 22.8125C62.5664 22.2461 62.8496 21.4486 62.8496 20.4199V10.7812H64.7344ZM77.5176 12.3242H72.9473V25H71.082V12.3242H66.5215V10.7812H77.5176V12.3242ZM86.6973 21.2891H80.7402L79.4023 25H77.4688L82.8984 10.7812H84.5391L89.9785 25H88.0547L86.6973 21.2891ZM81.3066 19.7461H86.1406L83.7188 13.0957L81.3066 19.7461Z" fill="#333333"/>
<path d="M103.502 21.2891H97.5449L96.207 25H94.2734L99.7031 10.7812H101.344L106.783 25H104.859L103.502 21.2891ZM98.1113 19.7461H102.945L100.523 13.0957L98.1113 19.7461ZM108.697 25V10.7812H112.711C113.948 10.7812 115.042 11.0547 115.992 11.6016C116.943 12.1484 117.675 12.9264 118.189 13.9355C118.71 14.9447 118.974 16.1035 118.98 17.4121V18.3203C118.98 19.6615 118.72 20.8366 118.199 21.8457C117.685 22.8548 116.946 23.6296 115.982 24.1699C115.025 24.7103 113.909 24.987 112.633 25H108.697ZM110.572 12.3242V23.4668H112.545C113.99 23.4668 115.113 23.0176 115.914 22.1191C116.721 21.2207 117.125 19.9414 117.125 18.2812V17.4512C117.125 15.8366 116.744 14.5833 115.982 13.6914C115.227 12.793 114.153 12.3372 112.76 12.3242H110.572ZM124.244 10.7812L128.893 22.3828L133.541 10.7812H135.973V25H134.098V19.4629L134.273 13.4863L129.605 25H128.17L123.512 13.5156L123.697 19.4629V25H121.822V10.7812H124.244ZM141.295 25H139.42V10.7812H141.295V25ZM155.66 25H153.775L146.617 14.043V25H144.732V10.7812H146.617L153.795 21.7871V10.7812H155.66V25Z" fill="#333333" fill-opacity="0.5"/>
</svg>
